<svg width="746" height="210" viewBox="0 0 746 210" fill="none" xmlns="http://www.w3.org/2000/svg">
<path d="M106.093 73.703H102.666C98.5711 87.9938 87.3308 99.2341 73.04 103.329V106.756C87.3308 110.851 98.5711 122.091 102.666 136.382H106.093C110.188 122.091 121.428 110.851 135.719 106.756V103.329C121.428 99.2341 110.188 87.9938 106.093 73.703Z" fill="#070909"/>
<path d="M161.251 118.664C155.109 144.362 132.001 163.5 104.423 163.5C72.1222 163.5 45.9225 137.3 45.9225 105C45.9225 72.6996 72.1222 46.4999 104.423 46.4999C132.001 46.4999 155.067 65.6378 161.251 91.336C175.834 83.8981 188.788 73.7442 199.402 61.4592C182.896 25.5234 146.584 0.535553 104.464 0.535553C46.7583 0.535553 0 47.2938 0 105C0 162.706 46.7583 209.464 104.464 209.464C146.626 209.464 182.896 184.476 199.402 148.541C188.788 136.256 175.876 126.06 161.293 118.622L161.251 118.664Z" fill="#070909"/>
<path d="M298.476 38.1218C334.871 38.1218 356.474 62.6919 358.689 89.2258H327.726C325.762 76.9408 316.193 66.6197 298.476 66.6197C276.831 66.6197 264.295 82.3312 264.295 104.979C264.295 127.627 276.831 143.338 298.476 143.338C316.193 143.338 325.762 133.017 327.726 120.732H358.689C356.474 147.266 335.08 171.878 298.476 171.878C258.905 171.878 232.83 143.589 232.83 105.021C232.83 66.4526 258.153 38.1636 298.476 38.1636V38.1218Z" fill="#070909"/>
<path d="M496.333 104.979C496.333 141.834 472.013 171.836 431.439 171.836C390.865 171.836 366.546 141.834 366.546 104.979C366.546 68.124 390.865 38.1218 431.439 38.1218C472.013 38.1218 496.333 68.124 496.333 104.979ZM464.868 104.979C464.868 83.8355 452.834 66.6197 431.439 66.6197C410.045 66.6197 398.011 83.8355 398.011 104.979C398.011 126.123 410.045 143.338 431.439 143.338C452.834 143.338 464.868 126.123 464.868 104.979Z" fill="#070909"/>
<path d="M524.834 40.1299L553.583 135.025C555.045 139.956 555.296 144.594 555.296 149.274C555.296 150.987 555.797 152.951 558.263 152.951C560.728 152.951 561.229 150.987 561.229 149.274C561.229 144.594 561.48 139.914 562.942 135.025L591.691 40.1299H625.12L588.181 148.522C583.835 161.309 571.801 169.916 558.263 169.916C544.724 169.916 532.731 161.309 528.344 148.522L491.405 40.1299H524.834Z" fill="#070909"/>
<path d="M745.289 112.877H650.895C653.11 132.558 665.896 144.341 685.535 144.341C700.537 144.341 708.142 136.235 711.819 124.66H743.785C738.144 151.445 719.925 171.836 685.285 171.836C643.248 171.836 620.141 143.547 620.141 104.979C620.141 64.4051 645.212 38.1218 684.783 38.1218C714.786 38.1218 746 56.0479 746 103.266C746 106.692 745.749 109.158 745.247 112.835L745.289 112.877ZM714.577 91.2315C713.365 75.5201 704.005 63.6947 685.828 63.6947C664.434 63.6947 655.366 75.729 652.149 91.2315H714.577Z" fill="#070909"/>
</svg>
